<mxfile host="app.diagrams.net" modified="2024-01-20T18:11:52.944Z" agent="Mozilla/5.0 (Windows NT 10.0; Win64; x64) AppleWebKit/537.36 (KHTML, like Gecko) Chrome/119.0.0.0 Safari/537.36 OPR/105.0.0.0" etag="jBKgy5-Fyoawq4lN2vFU" version="22.1.21" type="google">
  <diagram name="PÃ¡gina-1" id="XqUGBcol5dS_Bmswjq5t">
    <mxGraphModel grid="0" page="0" gridSize="10" guides="1" tooltips="1" connect="1" arrows="1" fold="1" pageScale="1" pageWidth="827" pageHeight="1169" background="#030303" math="0" shadow="0">
      <root>
        <mxCell id="0" />
        <mxCell id="1" parent="0" />
        <mxCell id="2ukmL8wIdGiU-qPKYDEw-6" value="User" style="swimlane;fontStyle=0;childLayout=stackLayout;horizontal=1;startSize=26;fillColor=none;horizontalStack=0;resizeParent=1;resizeParentMax=0;resizeLast=0;collapsible=1;marginBottom=0;whiteSpace=wrap;html=1;labelBackgroundColor=none;strokeColor=#DDA15E;fontColor=#FEFAE0;" vertex="1" parent="1">
          <mxGeometry x="220" y="140" width="140" height="156" as="geometry">
            <mxRectangle x="60" y="150" width="70" height="30" as="alternateBounds" />
          </mxGeometry>
        </mxCell>
        <mxCell id="2ukmL8wIdGiU-qPKYDEw-7" value="#id:int&lt;br&gt;" style="text;strokeColor=none;fillColor=none;align=left;verticalAlign=top;spacingLeft=4;spacingRight=4;overflow=hidden;rotatable=0;points=[[0,0.5],[1,0.5]];portConstraint=eastwest;whiteSpace=wrap;html=1;labelBackgroundColor=none;fontColor=#FEFAE0;" vertex="1" parent="2ukmL8wIdGiU-qPKYDEw-6">
          <mxGeometry y="26" width="140" height="26" as="geometry" />
        </mxCell>
        <mxCell id="2ukmL8wIdGiU-qPKYDEw-8" value="#username:string&lt;br&gt;" style="text;strokeColor=none;fillColor=none;align=left;verticalAlign=top;spacingLeft=4;spacingRight=4;overflow=hidden;rotatable=0;points=[[0,0.5],[1,0.5]];portConstraint=eastwest;whiteSpace=wrap;html=1;labelBackgroundColor=none;fontColor=#FEFAE0;" vertex="1" parent="2ukmL8wIdGiU-qPKYDEw-6">
          <mxGeometry y="52" width="140" height="26" as="geometry" />
        </mxCell>
        <mxCell id="2ukmL8wIdGiU-qPKYDEw-9" value="#password:string&lt;br&gt;" style="text;strokeColor=none;fillColor=none;align=left;verticalAlign=top;spacingLeft=4;spacingRight=4;overflow=hidden;rotatable=0;points=[[0,0.5],[1,0.5]];portConstraint=eastwest;whiteSpace=wrap;html=1;labelBackgroundColor=none;fontColor=#FEFAE0;" vertex="1" parent="2ukmL8wIdGiU-qPKYDEw-6">
          <mxGeometry y="78" width="140" height="26" as="geometry" />
        </mxCell>
        <mxCell id="2ukmL8wIdGiU-qPKYDEw-10" value="#email:string" style="text;strokeColor=none;fillColor=none;align=left;verticalAlign=top;spacingLeft=4;spacingRight=4;overflow=hidden;rotatable=0;points=[[0,0.5],[1,0.5]];portConstraint=eastwest;whiteSpace=wrap;html=1;labelBackgroundColor=none;fontColor=#FEFAE0;" vertex="1" parent="2ukmL8wIdGiU-qPKYDEw-6">
          <mxGeometry y="104" width="140" height="26" as="geometry" />
        </mxCell>
        <mxCell id="2ukmL8wIdGiU-qPKYDEw-11" value="#role:string&lt;br&gt;" style="text;strokeColor=none;fillColor=none;align=left;verticalAlign=top;spacingLeft=4;spacingRight=4;overflow=hidden;rotatable=0;points=[[0,0.5],[1,0.5]];portConstraint=eastwest;whiteSpace=wrap;html=1;labelBackgroundColor=none;fontColor=#FEFAE0;" vertex="1" parent="2ukmL8wIdGiU-qPKYDEw-6">
          <mxGeometry y="130" width="140" height="26" as="geometry" />
        </mxCell>
        <mxCell id="2ukmL8wIdGiU-qPKYDEw-12" value="Reader" style="swimlane;fontStyle=0;childLayout=stackLayout;horizontal=1;startSize=26;fillColor=none;horizontalStack=0;resizeParent=1;resizeParentMax=0;resizeLast=0;collapsible=1;marginBottom=0;whiteSpace=wrap;html=1;labelBackgroundColor=none;strokeColor=#DDA15E;fontColor=#FEFAE0;" vertex="1" parent="1">
          <mxGeometry x="-74" y="192" width="140" height="78" as="geometry" />
        </mxCell>
        <mxCell id="2ukmL8wIdGiU-qPKYDEw-15" value="#reader_id: int" style="text;strokeColor=none;fillColor=none;align=left;verticalAlign=top;spacingLeft=4;spacingRight=4;overflow=hidden;rotatable=0;points=[[0,0.5],[1,0.5]];portConstraint=eastwest;whiteSpace=wrap;html=1;labelBackgroundColor=none;fontColor=#FEFAE0;" vertex="1" parent="2ukmL8wIdGiU-qPKYDEw-12">
          <mxGeometry y="26" width="140" height="26" as="geometry" />
        </mxCell>
        <mxCell id="vmHvUTqwIPzVs6DOa_j5-23" value="#readed_books: int&lt;br&gt;" style="text;strokeColor=none;fillColor=none;align=left;verticalAlign=top;spacingLeft=4;spacingRight=4;overflow=hidden;rotatable=0;points=[[0,0.5],[1,0.5]];portConstraint=eastwest;whiteSpace=wrap;html=1;labelBackgroundColor=none;fontColor=#FEFAE0;" vertex="1" parent="2ukmL8wIdGiU-qPKYDEw-12">
          <mxGeometry y="52" width="140" height="26" as="geometry" />
        </mxCell>
        <mxCell id="2ukmL8wIdGiU-qPKYDEw-16" value="Librarian" style="swimlane;fontStyle=0;childLayout=stackLayout;horizontal=1;startSize=26;fillColor=none;horizontalStack=0;resizeParent=1;resizeParentMax=0;resizeLast=0;collapsible=1;marginBottom=0;whiteSpace=wrap;html=1;labelBackgroundColor=none;strokeColor=#DDA15E;fontColor=#FEFAE0;" vertex="1" parent="1">
          <mxGeometry x="485" y="192" width="140" height="78" as="geometry" />
        </mxCell>
        <mxCell id="2ukmL8wIdGiU-qPKYDEw-17" value="#librarian_id: int" style="text;strokeColor=none;fillColor=none;align=left;verticalAlign=top;spacingLeft=4;spacingRight=4;overflow=hidden;rotatable=0;points=[[0,0.5],[1,0.5]];portConstraint=eastwest;whiteSpace=wrap;html=1;labelBackgroundColor=none;fontColor=#FEFAE0;" vertex="1" parent="2ukmL8wIdGiU-qPKYDEw-16">
          <mxGeometry y="26" width="140" height="26" as="geometry" />
        </mxCell>
        <mxCell id="vmHvUTqwIPzVs6DOa_j5-27" value="#hireDate: Date" style="text;strokeColor=none;fillColor=none;align=left;verticalAlign=top;spacingLeft=4;spacingRight=4;overflow=hidden;rotatable=0;points=[[0,0.5],[1,0.5]];portConstraint=eastwest;whiteSpace=wrap;html=1;labelBackgroundColor=none;fontColor=#FEFAE0;" vertex="1" parent="2ukmL8wIdGiU-qPKYDEw-16">
          <mxGeometry y="52" width="140" height="26" as="geometry" />
        </mxCell>
        <mxCell id="2ukmL8wIdGiU-qPKYDEw-20" value="Admin" style="swimlane;fontStyle=0;childLayout=stackLayout;horizontal=1;startSize=26;fillColor=none;horizontalStack=0;resizeParent=1;resizeParentMax=0;resizeLast=0;collapsible=1;marginBottom=0;whiteSpace=wrap;html=1;labelBackgroundColor=none;strokeColor=#DDA15E;fontColor=#FEFAE0;" vertex="1" parent="1">
          <mxGeometry x="-66" y="293" width="140" height="78" as="geometry" />
        </mxCell>
        <mxCell id="2ukmL8wIdGiU-qPKYDEw-23" value="#admin_id: int" style="text;strokeColor=none;fillColor=none;align=left;verticalAlign=top;spacingLeft=4;spacingRight=4;overflow=hidden;rotatable=0;points=[[0,0.5],[1,0.5]];portConstraint=eastwest;whiteSpace=wrap;html=1;labelBackgroundColor=none;fontColor=#FEFAE0;" vertex="1" parent="2ukmL8wIdGiU-qPKYDEw-20">
          <mxGeometry y="26" width="140" height="26" as="geometry" />
        </mxCell>
        <mxCell id="vmHvUTqwIPzVs6DOa_j5-26" value="#position: string" style="text;strokeColor=none;fillColor=none;align=left;verticalAlign=top;spacingLeft=4;spacingRight=4;overflow=hidden;rotatable=0;points=[[0,0.5],[1,0.5]];portConstraint=eastwest;whiteSpace=wrap;html=1;labelBackgroundColor=none;fontColor=#FEFAE0;" vertex="1" parent="2ukmL8wIdGiU-qPKYDEw-20">
          <mxGeometry y="52" width="140" height="26" as="geometry" />
        </mxCell>
        <mxCell id="2ukmL8wIdGiU-qPKYDEw-25" value="Book" style="swimlane;fontStyle=0;childLayout=stackLayout;horizontal=1;startSize=26;fillColor=none;horizontalStack=0;resizeParent=1;resizeParentMax=0;resizeLast=0;collapsible=1;marginBottom=0;whiteSpace=wrap;html=1;labelBackgroundColor=none;strokeColor=#DDA15E;fontColor=#FEFAE0;" vertex="1" parent="1">
          <mxGeometry x="727" y="-5" width="140" height="156" as="geometry" />
        </mxCell>
        <mxCell id="2ukmL8wIdGiU-qPKYDEw-26" value="#id: int" style="text;strokeColor=none;fillColor=none;align=left;verticalAlign=top;spacingLeft=4;spacingRight=4;overflow=hidden;rotatable=0;points=[[0,0.5],[1,0.5]];portConstraint=eastwest;whiteSpace=wrap;html=1;labelBackgroundColor=none;fontColor=#FEFAE0;" vertex="1" parent="2ukmL8wIdGiU-qPKYDEw-25">
          <mxGeometry y="26" width="140" height="26" as="geometry" />
        </mxCell>
        <mxCell id="2ukmL8wIdGiU-qPKYDEw-27" value="#title: string&lt;br&gt;" style="text;strokeColor=none;fillColor=none;align=left;verticalAlign=top;spacingLeft=4;spacingRight=4;overflow=hidden;rotatable=0;points=[[0,0.5],[1,0.5]];portConstraint=eastwest;whiteSpace=wrap;html=1;labelBackgroundColor=none;fontColor=#FEFAE0;" vertex="1" parent="2ukmL8wIdGiU-qPKYDEw-25">
          <mxGeometry y="52" width="140" height="26" as="geometry" />
        </mxCell>
        <mxCell id="2ukmL8wIdGiU-qPKYDEw-28" value="#author: string" style="text;strokeColor=none;fillColor=none;align=left;verticalAlign=top;spacingLeft=4;spacingRight=4;overflow=hidden;rotatable=0;points=[[0,0.5],[1,0.5]];portConstraint=eastwest;whiteSpace=wrap;html=1;labelBackgroundColor=none;fontColor=#FEFAE0;" vertex="1" parent="2ukmL8wIdGiU-qPKYDEw-25">
          <mxGeometry y="78" width="140" height="26" as="geometry" />
        </mxCell>
        <mxCell id="2ukmL8wIdGiU-qPKYDEw-33" value="#genre: string" style="text;strokeColor=none;fillColor=none;align=left;verticalAlign=top;spacingLeft=4;spacingRight=4;overflow=hidden;rotatable=0;points=[[0,0.5],[1,0.5]];portConstraint=eastwest;whiteSpace=wrap;html=1;labelBackgroundColor=none;fontColor=#FEFAE0;" vertex="1" parent="2ukmL8wIdGiU-qPKYDEw-25">
          <mxGeometry y="104" width="140" height="26" as="geometry" />
        </mxCell>
        <mxCell id="dBOQyMAopTo2IFKgxT0i-1" value="#price: float" style="text;strokeColor=none;fillColor=none;align=left;verticalAlign=top;spacingLeft=4;spacingRight=4;overflow=hidden;rotatable=0;points=[[0,0.5],[1,0.5]];portConstraint=eastwest;whiteSpace=wrap;html=1;labelBackgroundColor=none;fontColor=#FEFAE0;" vertex="1" parent="2ukmL8wIdGiU-qPKYDEw-25">
          <mxGeometry y="130" width="140" height="26" as="geometry" />
        </mxCell>
        <mxCell id="2ukmL8wIdGiU-qPKYDEw-36" value="Subscription" style="swimlane;fontStyle=0;childLayout=stackLayout;horizontal=1;startSize=26;fillColor=none;horizontalStack=0;resizeParent=1;resizeParentMax=0;resizeLast=0;collapsible=1;marginBottom=0;whiteSpace=wrap;html=1;labelBackgroundColor=none;strokeColor=#DDA15E;fontColor=#FEFAE0;" vertex="1" parent="1">
          <mxGeometry x="-25" y="-22" width="140" height="182" as="geometry" />
        </mxCell>
        <mxCell id="2ukmL8wIdGiU-qPKYDEw-37" value="#id: int" style="text;strokeColor=none;fillColor=none;align=left;verticalAlign=top;spacingLeft=4;spacingRight=4;overflow=hidden;rotatable=0;points=[[0,0.5],[1,0.5]];portConstraint=eastwest;whiteSpace=wrap;html=1;labelBackgroundColor=none;fontColor=#FEFAE0;" vertex="1" parent="2ukmL8wIdGiU-qPKYDEw-36">
          <mxGeometry y="26" width="140" height="26" as="geometry" />
        </mxCell>
        <mxCell id="2ukmL8wIdGiU-qPKYDEw-38" value="#user_id: int" style="text;strokeColor=none;fillColor=none;align=left;verticalAlign=top;spacingLeft=4;spacingRight=4;overflow=hidden;rotatable=0;points=[[0,0.5],[1,0.5]];portConstraint=eastwest;whiteSpace=wrap;html=1;labelBackgroundColor=none;fontColor=#FEFAE0;" vertex="1" parent="2ukmL8wIdGiU-qPKYDEw-36">
          <mxGeometry y="52" width="140" height="26" as="geometry" />
        </mxCell>
        <mxCell id="2ukmL8wIdGiU-qPKYDEw-39" value="#start_date: date" style="text;strokeColor=none;fillColor=none;align=left;verticalAlign=top;spacingLeft=4;spacingRight=4;overflow=hidden;rotatable=0;points=[[0,0.5],[1,0.5]];portConstraint=eastwest;whiteSpace=wrap;html=1;labelBackgroundColor=none;fontColor=#FEFAE0;" vertex="1" parent="2ukmL8wIdGiU-qPKYDEw-36">
          <mxGeometry y="78" width="140" height="26" as="geometry" />
        </mxCell>
        <mxCell id="2ukmL8wIdGiU-qPKYDEw-40" value="#end_date: date" style="text;strokeColor=none;fillColor=none;align=left;verticalAlign=top;spacingLeft=4;spacingRight=4;overflow=hidden;rotatable=0;points=[[0,0.5],[1,0.5]];portConstraint=eastwest;whiteSpace=wrap;html=1;labelBackgroundColor=none;fontColor=#FEFAE0;" vertex="1" parent="2ukmL8wIdGiU-qPKYDEw-36">
          <mxGeometry y="104" width="140" height="26" as="geometry" />
        </mxCell>
        <mxCell id="2ukmL8wIdGiU-qPKYDEw-41" value="#is_active: boolean" style="text;strokeColor=none;fillColor=none;align=left;verticalAlign=top;spacingLeft=4;spacingRight=4;overflow=hidden;rotatable=0;points=[[0,0.5],[1,0.5]];portConstraint=eastwest;whiteSpace=wrap;html=1;labelBackgroundColor=none;fontColor=#FEFAE0;" vertex="1" parent="2ukmL8wIdGiU-qPKYDEw-36">
          <mxGeometry y="130" width="140" height="26" as="geometry" />
        </mxCell>
        <mxCell id="vmHvUTqwIPzVs6DOa_j5-28" value="#type: string" style="text;strokeColor=none;fillColor=none;align=left;verticalAlign=top;spacingLeft=4;spacingRight=4;overflow=hidden;rotatable=0;points=[[0,0.5],[1,0.5]];portConstraint=eastwest;whiteSpace=wrap;html=1;labelBackgroundColor=none;fontColor=#FEFAE0;" vertex="1" parent="2ukmL8wIdGiU-qPKYDEw-36">
          <mxGeometry y="156" width="140" height="26" as="geometry" />
        </mxCell>
        <mxCell id="2ukmL8wIdGiU-qPKYDEw-42" value="Payment" style="swimlane;fontStyle=0;childLayout=stackLayout;horizontal=1;startSize=26;fillColor=none;horizontalStack=0;resizeParent=1;resizeParentMax=0;resizeLast=0;collapsible=1;marginBottom=0;whiteSpace=wrap;html=1;labelBackgroundColor=none;strokeColor=#DDA15E;fontColor=#FEFAE0;" vertex="1" parent="1">
          <mxGeometry x="470" y="347" width="140" height="156" as="geometry" />
        </mxCell>
        <mxCell id="2ukmL8wIdGiU-qPKYDEw-43" value="#id:int" style="text;strokeColor=none;fillColor=none;align=left;verticalAlign=top;spacingLeft=4;spacingRight=4;overflow=hidden;rotatable=0;points=[[0,0.5],[1,0.5]];portConstraint=eastwest;whiteSpace=wrap;html=1;labelBackgroundColor=none;fontColor=#FEFAE0;" vertex="1" parent="2ukmL8wIdGiU-qPKYDEw-42">
          <mxGeometry y="26" width="140" height="26" as="geometry" />
        </mxCell>
        <mxCell id="2ukmL8wIdGiU-qPKYDEw-44" value="#user_id:int" style="text;strokeColor=none;fillColor=none;align=left;verticalAlign=top;spacingLeft=4;spacingRight=4;overflow=hidden;rotatable=0;points=[[0,0.5],[1,0.5]];portConstraint=eastwest;whiteSpace=wrap;html=1;labelBackgroundColor=none;fontColor=#FEFAE0;" vertex="1" parent="2ukmL8wIdGiU-qPKYDEw-42">
          <mxGeometry y="52" width="140" height="26" as="geometry" />
        </mxCell>
        <mxCell id="2ukmL8wIdGiU-qPKYDEw-45" value="#amount:int" style="text;strokeColor=none;fillColor=none;align=left;verticalAlign=top;spacingLeft=4;spacingRight=4;overflow=hidden;rotatable=0;points=[[0,0.5],[1,0.5]];portConstraint=eastwest;whiteSpace=wrap;html=1;labelBackgroundColor=none;fontColor=#FEFAE0;" vertex="1" parent="2ukmL8wIdGiU-qPKYDEw-42">
          <mxGeometry y="78" width="140" height="26" as="geometry" />
        </mxCell>
        <mxCell id="2ukmL8wIdGiU-qPKYDEw-46" value="#date: date" style="text;strokeColor=none;fillColor=none;align=left;verticalAlign=top;spacingLeft=4;spacingRight=4;overflow=hidden;rotatable=0;points=[[0,0.5],[1,0.5]];portConstraint=eastwest;whiteSpace=wrap;html=1;labelBackgroundColor=none;fontColor=#FEFAE0;" vertex="1" parent="2ukmL8wIdGiU-qPKYDEw-42">
          <mxGeometry y="104" width="140" height="26" as="geometry" />
        </mxCell>
        <mxCell id="vmHvUTqwIPzVs6DOa_j5-21" value="#card_id: int&lt;br&gt;" style="text;strokeColor=none;fillColor=none;align=left;verticalAlign=top;spacingLeft=4;spacingRight=4;overflow=hidden;rotatable=0;points=[[0,0.5],[1,0.5]];portConstraint=eastwest;whiteSpace=wrap;html=1;labelBackgroundColor=none;fontColor=#FEFAE0;" vertex="1" parent="2ukmL8wIdGiU-qPKYDEw-42">
          <mxGeometry y="130" width="140" height="26" as="geometry" />
        </mxCell>
        <mxCell id="2ukmL8wIdGiU-qPKYDEw-47" value="Extends" style="endArrow=block;endSize=16;endFill=0;html=1;rounded=0;exitX=-0.007;exitY=0.269;exitDx=0;exitDy=0;exitPerimeter=0;labelBackgroundColor=none;strokeColor=#DDA15E;fontColor=default;entryX=0.993;entryY=-0.038;entryDx=0;entryDy=0;entryPerimeter=0;" edge="1" parent="1" source="2ukmL8wIdGiU-qPKYDEw-9" target="vmHvUTqwIPzVs6DOa_j5-23">
          <mxGeometry x="0.0061" width="160" relative="1" as="geometry">
            <mxPoint x="330" y="250" as="sourcePoint" />
            <mxPoint x="490" y="250" as="targetPoint" />
            <mxPoint as="offset" />
          </mxGeometry>
        </mxCell>
        <mxCell id="2ukmL8wIdGiU-qPKYDEw-49" value="Extends" style="endArrow=block;endSize=16;endFill=0;html=1;rounded=0;exitX=1.007;exitY=0;exitDx=0;exitDy=0;exitPerimeter=0;labelBackgroundColor=none;strokeColor=#DDA15E;fontColor=default;" edge="1" parent="1" source="2ukmL8wIdGiU-qPKYDEw-9" target="2ukmL8wIdGiU-qPKYDEw-16">
          <mxGeometry width="160" relative="1" as="geometry">
            <mxPoint x="330" y="250" as="sourcePoint" />
            <mxPoint x="459.02" y="217.01199999999994" as="targetPoint" />
          </mxGeometry>
        </mxCell>
        <mxCell id="2ukmL8wIdGiU-qPKYDEw-50" value="Extends" style="endArrow=block;endSize=16;endFill=0;html=1;rounded=0;entryX=1;entryY=0.25;entryDx=0;entryDy=0;labelBackgroundColor=none;strokeColor=#DDA15E;fontColor=default;" edge="1" parent="1" source="2ukmL8wIdGiU-qPKYDEw-11" target="2ukmL8wIdGiU-qPKYDEw-20">
          <mxGeometry width="160" relative="1" as="geometry">
            <mxPoint x="330" y="250" as="sourcePoint" />
            <mxPoint x="490" y="250" as="targetPoint" />
          </mxGeometry>
        </mxCell>
        <mxCell id="2ukmL8wIdGiU-qPKYDEw-51" value="" style="endArrow=none;html=1;edgeStyle=orthogonalEdgeStyle;rounded=0;exitX=0.5;exitY=0;exitDx=0;exitDy=0;entryX=1.014;entryY=0.231;entryDx=0;entryDy=0;entryPerimeter=0;labelBackgroundColor=none;strokeColor=#DDA15E;fontColor=default;" edge="1" parent="1" source="2ukmL8wIdGiU-qPKYDEw-6" target="2ukmL8wIdGiU-qPKYDEw-38">
          <mxGeometry relative="1" as="geometry">
            <mxPoint x="330" y="250" as="sourcePoint" />
            <mxPoint x="490" y="250" as="targetPoint" />
            <Array as="points">
              <mxPoint x="290" y="75" />
              <mxPoint x="123" y="75" />
            </Array>
          </mxGeometry>
        </mxCell>
        <mxCell id="2ukmL8wIdGiU-qPKYDEw-54" value="" style="endArrow=none;html=1;edgeStyle=orthogonalEdgeStyle;rounded=0;entryX=0;entryY=0.5;entryDx=0;entryDy=0;exitX=1;exitY=0.5;exitDx=0;exitDy=0;labelBackgroundColor=none;strokeColor=#DDA15E;fontColor=default;" edge="1" parent="1" source="2ukmL8wIdGiU-qPKYDEw-7" target="2ukmL8wIdGiU-qPKYDEw-44">
          <mxGeometry relative="1" as="geometry">
            <mxPoint x="330" y="250" as="sourcePoint" />
            <mxPoint x="490" y="250" as="targetPoint" />
            <Array as="points">
              <mxPoint x="359" y="179" />
              <mxPoint x="359" y="182" />
              <mxPoint x="435" y="182" />
              <mxPoint x="435" y="412" />
            </Array>
          </mxGeometry>
        </mxCell>
        <mxCell id="vmHvUTqwIPzVs6DOa_j5-5" value="History" style="swimlane;fontStyle=0;childLayout=stackLayout;horizontal=1;startSize=26;fillColor=none;horizontalStack=0;resizeParent=1;resizeParentMax=0;resizeLast=0;collapsible=1;marginBottom=0;whiteSpace=wrap;html=1;labelBackgroundColor=none;strokeColor=#DDA15E;fontColor=#FEFAE0;" vertex="1" parent="1">
          <mxGeometry x="407" y="-16" width="140" height="104" as="geometry" />
        </mxCell>
        <mxCell id="vmHvUTqwIPzVs6DOa_j5-6" value="#id: int" style="text;strokeColor=none;fillColor=none;align=left;verticalAlign=top;spacingLeft=4;spacingRight=4;overflow=hidden;rotatable=0;points=[[0,0.5],[1,0.5]];portConstraint=eastwest;whiteSpace=wrap;html=1;labelBackgroundColor=none;fontColor=#FEFAE0;" vertex="1" parent="vmHvUTqwIPzVs6DOa_j5-5">
          <mxGeometry y="26" width="140" height="26" as="geometry" />
        </mxCell>
        <mxCell id="vmHvUTqwIPzVs6DOa_j5-7" value="#reader_id:int&lt;br&gt;" style="text;strokeColor=none;fillColor=none;align=left;verticalAlign=top;spacingLeft=4;spacingRight=4;overflow=hidden;rotatable=0;points=[[0,0.5],[1,0.5]];portConstraint=eastwest;whiteSpace=wrap;html=1;labelBackgroundColor=none;fontColor=#FEFAE0;" vertex="1" parent="vmHvUTqwIPzVs6DOa_j5-5">
          <mxGeometry y="52" width="140" height="26" as="geometry" />
        </mxCell>
        <mxCell id="vmHvUTqwIPzVs6DOa_j5-8" value="#book_id: int" style="text;strokeColor=none;fillColor=none;align=left;verticalAlign=top;spacingLeft=4;spacingRight=4;overflow=hidden;rotatable=0;points=[[0,0.5],[1,0.5]];portConstraint=eastwest;whiteSpace=wrap;html=1;labelBackgroundColor=none;fontColor=#FEFAE0;" vertex="1" parent="vmHvUTqwIPzVs6DOa_j5-5">
          <mxGeometry y="78" width="140" height="26" as="geometry" />
        </mxCell>
        <mxCell id="vmHvUTqwIPzVs6DOa_j5-11" value="" style="endArrow=none;html=1;edgeStyle=orthogonalEdgeStyle;rounded=0;exitX=1;exitY=0.5;exitDx=0;exitDy=0;entryX=0;entryY=0.5;entryDx=0;entryDy=0;labelBackgroundColor=none;strokeColor=#DDA15E;fontColor=default;" edge="1" parent="1" source="2ukmL8wIdGiU-qPKYDEw-15" target="vmHvUTqwIPzVs6DOa_j5-6">
          <mxGeometry relative="1" as="geometry">
            <mxPoint x="300" y="150" as="sourcePoint" />
            <mxPoint x="133" y="107" as="targetPoint" />
            <Array as="points">
              <mxPoint x="66" y="220" />
              <mxPoint x="164" y="220" />
              <mxPoint x="164" y="129" />
              <mxPoint x="375" y="129" />
              <mxPoint x="375" y="53" />
              <mxPoint x="407" y="53" />
            </Array>
          </mxGeometry>
        </mxCell>
        <mxCell id="vmHvUTqwIPzVs6DOa_j5-12" value="" style="endArrow=none;html=1;edgeStyle=orthogonalEdgeStyle;rounded=0;exitX=-0.014;exitY=0.071;exitDx=0;exitDy=0;entryX=1;entryY=0.5;entryDx=0;entryDy=0;labelBackgroundColor=none;strokeColor=#DDA15E;fontColor=default;exitPerimeter=0;" edge="1" parent="1" source="2ukmL8wIdGiU-qPKYDEw-25" target="vmHvUTqwIPzVs6DOa_j5-8">
          <mxGeometry relative="1" as="geometry">
            <mxPoint x="544" y="161" as="sourcePoint" />
            <mxPoint x="661" y="44" as="targetPoint" />
            <Array as="points">
              <mxPoint x="725" y="34" />
              <mxPoint x="693" y="34" />
              <mxPoint x="693" y="73" />
              <mxPoint x="547" y="73" />
            </Array>
          </mxGeometry>
        </mxCell>
        <mxCell id="vmHvUTqwIPzVs6DOa_j5-13" value="Card" style="swimlane;fontStyle=0;childLayout=stackLayout;horizontal=1;startSize=26;fillColor=none;horizontalStack=0;resizeParent=1;resizeParentMax=0;resizeLast=0;collapsible=1;marginBottom=0;whiteSpace=wrap;html=1;labelBackgroundColor=none;strokeColor=#DDA15E;fontColor=#FEFAE0;" vertex="1" parent="1">
          <mxGeometry x="159" y="373" width="140" height="156" as="geometry" />
        </mxCell>
        <mxCell id="vmHvUTqwIPzVs6DOa_j5-14" value="#id: int" style="text;strokeColor=none;fillColor=none;align=left;verticalAlign=top;spacingLeft=4;spacingRight=4;overflow=hidden;rotatable=0;points=[[0,0.5],[1,0.5]];portConstraint=eastwest;whiteSpace=wrap;html=1;labelBackgroundColor=none;fontColor=#FEFAE0;" vertex="1" parent="vmHvUTqwIPzVs6DOa_j5-13">
          <mxGeometry y="26" width="140" height="26" as="geometry" />
        </mxCell>
        <mxCell id="vmHvUTqwIPzVs6DOa_j5-15" value="#user_id: int" style="text;strokeColor=none;fillColor=none;align=left;verticalAlign=top;spacingLeft=4;spacingRight=4;overflow=hidden;rotatable=0;points=[[0,0.5],[1,0.5]];portConstraint=eastwest;whiteSpace=wrap;html=1;labelBackgroundColor=none;fontColor=#FEFAE0;" vertex="1" parent="vmHvUTqwIPzVs6DOa_j5-13">
          <mxGeometry y="52" width="140" height="26" as="geometry" />
        </mxCell>
        <mxCell id="vmHvUTqwIPzVs6DOa_j5-16" value="#name: string&lt;br&gt;" style="text;strokeColor=none;fillColor=none;align=left;verticalAlign=top;spacingLeft=4;spacingRight=4;overflow=hidden;rotatable=0;points=[[0,0.5],[1,0.5]];portConstraint=eastwest;whiteSpace=wrap;html=1;labelBackgroundColor=none;fontColor=#FEFAE0;" vertex="1" parent="vmHvUTqwIPzVs6DOa_j5-13">
          <mxGeometry y="78" width="140" height="26" as="geometry" />
        </mxCell>
        <mxCell id="vmHvUTqwIPzVs6DOa_j5-17" value="#card: string" style="text;strokeColor=none;fillColor=none;align=left;verticalAlign=top;spacingLeft=4;spacingRight=4;overflow=hidden;rotatable=0;points=[[0,0.5],[1,0.5]];portConstraint=eastwest;whiteSpace=wrap;html=1;labelBackgroundColor=none;fontColor=#FEFAE0;" vertex="1" parent="vmHvUTqwIPzVs6DOa_j5-13">
          <mxGeometry y="104" width="140" height="26" as="geometry" />
        </mxCell>
        <mxCell id="vmHvUTqwIPzVs6DOa_j5-18" value="#cvv: int" style="text;strokeColor=none;fillColor=none;align=left;verticalAlign=top;spacingLeft=4;spacingRight=4;overflow=hidden;rotatable=0;points=[[0,0.5],[1,0.5]];portConstraint=eastwest;whiteSpace=wrap;html=1;labelBackgroundColor=none;fontColor=#FEFAE0;" vertex="1" parent="vmHvUTqwIPzVs6DOa_j5-13">
          <mxGeometry y="130" width="140" height="26" as="geometry" />
        </mxCell>
        <mxCell id="vmHvUTqwIPzVs6DOa_j5-20" value="" style="endArrow=none;html=1;edgeStyle=orthogonalEdgeStyle;rounded=0;exitX=0;exitY=0.5;exitDx=0;exitDy=0;entryX=0;entryY=0.5;entryDx=0;entryDy=0;labelBackgroundColor=none;strokeColor=#DDA15E;fontColor=default;" edge="1" parent="1" source="vmHvUTqwIPzVs6DOa_j5-15" target="2ukmL8wIdGiU-qPKYDEw-7">
          <mxGeometry relative="1" as="geometry">
            <mxPoint x="85" y="389" as="sourcePoint" />
            <mxPoint x="202" y="272" as="targetPoint" />
            <Array as="points">
              <mxPoint x="95" y="438" />
              <mxPoint x="95" y="356" />
              <mxPoint x="202" y="356" />
              <mxPoint x="202" y="179" />
            </Array>
          </mxGeometry>
        </mxCell>
        <mxCell id="vmHvUTqwIPzVs6DOa_j5-22" value="" style="endArrow=none;html=1;edgeStyle=orthogonalEdgeStyle;rounded=0;exitX=1;exitY=0.5;exitDx=0;exitDy=0;entryX=0;entryY=0.5;entryDx=0;entryDy=0;labelBackgroundColor=none;strokeColor=#DDA15E;fontColor=default;" edge="1" parent="1" source="vmHvUTqwIPzVs6DOa_j5-14" target="vmHvUTqwIPzVs6DOa_j5-21">
          <mxGeometry relative="1" as="geometry">
            <mxPoint x="381" y="647" as="sourcePoint" />
            <mxPoint x="442" y="388" as="targetPoint" />
            <Array as="points">
              <mxPoint x="299" y="409" />
              <mxPoint x="424" y="409" />
              <mxPoint x="424" y="490" />
            </Array>
          </mxGeometry>
        </mxCell>
      </root>
    </mxGraphModel>
  </diagram>
</mxfile>
